<mxfile host="app.diagrams.net" modified="2022-08-16T07:30:36.910Z" agent="5.0 (Windows NT 10.0; Win64; x64) AppleWebKit/537.36 (KHTML, like Gecko) Chrome/104.0.0.0 Safari/537.36" etag="W3RPbtl1TV_Eqwd0b2ZF" version="20.1.2" type="github">
  <diagram id="CyCotAOFs8CiSxoiARDL" name="第 1 页">
    <mxGraphModel dx="1022" dy="436" grid="1" gridSize="10" guides="1" tooltips="1" connect="1" arrows="1" fold="1" page="1" pageScale="1" pageWidth="827" pageHeight="1169" math="0" shadow="0">
      <root>
        <mxCell id="0" />
        <mxCell id="1" parent="0" />
        <mxCell id="hh0cbMtGUYLOpiCmS87g-1" value="" style="shape=ext;double=1;rounded=0;whiteSpace=wrap;html=1;shadow=0;sketch=0;fillColor=#fff2cc;strokeColor=none;" vertex="1" parent="1">
          <mxGeometry x="30" y="65.12" width="680" height="63.91" as="geometry" />
        </mxCell>
        <mxCell id="hh0cbMtGUYLOpiCmS87g-4" value="" style="shape=manualInput;whiteSpace=wrap;html=1;rounded=0;shadow=0;sketch=0;rotation=90;fillColor=#fff2cc;strokeColor=none;" vertex="1" parent="1">
          <mxGeometry x="71.88" width="56" height="138.25" as="geometry" />
        </mxCell>
        <mxCell id="hh0cbMtGUYLOpiCmS87g-5" value="&lt;font style=&quot;font-size: 10px;&quot;&gt;APP.VW_CS_TBBOV&lt;br&gt;宴席取证数据&lt;/font&gt;" style="text;strokeColor=#666666;fillColor=#f5f5f5;html=1;fontSize=14;fontStyle=1;verticalAlign=middle;align=center;rounded=0;shadow=0;sketch=0;arcSize=12;strokeWidth=1;fontColor=#333333;" vertex="1" parent="1">
          <mxGeometry x="50" y="77.08" width="170" height="40" as="geometry" />
        </mxCell>
        <mxCell id="hh0cbMtGUYLOpiCmS87g-8" value="&lt;font style=&quot;font-size: 10px;&quot;&gt;BASE.FCT_BANQUET_SUBMISSION_ORDER&lt;br&gt;宴席提报数据&lt;/font&gt;" style="text;strokeColor=#666666;fillColor=#f5f5f5;html=1;fontSize=14;fontStyle=1;verticalAlign=middle;align=center;rounded=0;shadow=0;sketch=0;arcSize=12;strokeWidth=1;fontColor=#333333;" vertex="1" parent="1">
          <mxGeometry x="250" y="77.08" width="330" height="40" as="geometry" />
        </mxCell>
      </root>
    </mxGraphModel>
  </diagram>
</mxfile>
